<svg width="241" height="182" viewBox="0 0 241 182" fill="none" xmlns="http://www.w3.org/2000/svg">
<mask id="mask0_0_1" style="mask-type:alpha" maskUnits="userSpaceOnUse" x="0" y="19" width="241" height="163">
<path fill-rule="evenodd" clip-rule="evenodd" d="M122.027 144.592C127.079 147.257 133.298 150.342 139.594 153.324C147.154 156.906 154.832 160.347 160.738 162.752C162.36 163.413 163.852 163.996 165.172 164.483C152.055 173.431 136.202 178.665 119.126 178.665C93.9961 178.665 71.5132 167.333 56.5061 149.502C65.0071 152.494 74.1509 154.122 83.675 154.122C97.5342 154.122 110.587 150.674 122.027 144.592ZM146.295 19.6649C178.123 30.8672 200.936 61.1972 200.936 96.8554C200.936 122.95 188.717 146.19 169.691 161.17C168.546 160.585 167.187 159.858 165.67 159.018C161.559 156.743 156.311 153.665 151.089 150.458C145.867 147.251 140.677 143.919 136.683 141.136C135.027 139.982 133.582 138.925 132.427 138.014C152.487 123.104 165.485 99.2267 165.485 72.3124C165.485 52.2601 158.27 33.8932 146.295 19.6649Z" fill="#D9D9D9"/>
<path fill-rule="evenodd" clip-rule="evenodd" d="M0.799202 40.0539C6.12934 30.8184 37.1152 38.0256 77.9369 56.3176C65.7622 54.3018 57.3433 55.4748 54.3969 60.3742C45.8587 74.5732 86.5123 114.695 145.2 149.989C156.946 157.053 168.524 163.387 179.6 168.889C158.188 160.37 132.855 148.019 106.513 132.816C40.5381 94.7391 -6.79123 53.2087 0.799202 40.0539Z" fill="#D9D9D9"/>
<path fill-rule="evenodd" clip-rule="evenodd" d="M158.765 100.488C211.453 134.443 246.114 166.862 239.719 177.943C237.697 181.447 231.772 182.462 222.854 181.309C223.128 181.02 223.378 180.712 223.603 180.384C231.765 168.444 203.65 134.603 158.765 100.488Z" fill="#D9D9D9"/>
<path d="M199.447 143.792C213.197 157.056 219.85 167.54 216.73 172.946C216.258 173.765 215.571 174.448 214.684 175C216.477 168.293 210.754 157.178 199.447 143.792Z" fill="#D9D9D9"/>
<path fill-rule="evenodd" clip-rule="evenodd" d="M60.176 63.9459C62.771 59.9354 69.3924 59.0784 77.9572 60.94C72.8477 61.159 68.9294 62.7808 66.8986 65.9195C61.7955 73.8069 70.3101 88.6418 86.2902 101.081C66.8377 88.0363 55.2068 71.6262 60.176 63.9459Z" fill="#D9D9D9"/>
</mask>
<g mask="url(#mask0_0_1)">
<rect x="-24.0642" y="-6.33505" width="312" height="216" fill="url(#paint0_linear_0_1)"/>
</g>
<path d="M113.859 3.81346e-08C113.859 3.81346e-08 109.134 13.0867 111.833 20.781C114.489 28.3545 126.061 35.6113 126.061 35.6113C126.061 35.6113 113.138 31.1902 105.581 33.8946C97.9037 36.642 90.7115 48.5525 90.7115 48.5525C90.7115 48.5525 95.4367 35.4659 92.7377 27.7716C90.0809 20.198 78.5095 12.9412 78.5095 12.9412C78.5095 12.9412 91.4329 17.3623 98.9895 14.658C106.667 11.9106 113.859 3.81346e-08 113.859 3.81346e-08Z" fill="#F7E6A0"/>
<defs>
<linearGradient id="paint0_linear_0_1" x1="184.048" y1="7.06944" x2="29.9358" y2="137.165" gradientUnits="userSpaceOnUse">
<stop stop-color="#E359F2"/>
<stop offset="0.682692" stop-color="#5A51B6"/>
<stop offset="1" stop-color="#091A8A"/>
</linearGradient>
</defs>
</svg>
